<?xml version="1.0" standalone="no"?><!DOCTYPE svg PUBLIC "-//W3C//DTD SVG 1.1//EN" "http://www.w3.org/Graphics/SVG/1.1/DTD/svg11.dtd"><svg t="1604929936879" class="icon" viewBox="0 0 2039 1024" version="1.1" xmlns="http://www.w3.org/2000/svg" p-id="2285" xmlns:xlink="http://www.w3.org/1999/xlink" width="398.2421875" height="200"><defs><style type="text/css"></style></defs><path d="M339.513519 170.443155v11.847453c17.828664 0 29.281736 1.016031 34.359216 3.046755s7.617556 9.02663 7.617556 20.989054v271.830984c0 11.961087-2.53874 18.956993-7.61622 20.989055s-16.531888 3.046755-34.359216 3.046755v11.848789h173.321464c15.796603 0 30.071834-2.596226 42.821682-7.786003s23.752391-12.073385 33.006291-20.649487c9.252563-8.576101 16.360768-18.448978 21.325949-29.619968s7.447772-22.73636 7.447772-34.697447c0-11.058692-2.482591-21.665517-7.447772-31.820476s-11.735154-19.182926-20.311256-27.081228c-8.576101-7.899638-18.674911-14.273894-30.29643-19.125441s-24.204257-7.728517-37.744202-8.63225c11.961087-2.256658 22.906144-5.867577 32.836507-10.832758s18.448978-11.002543 25.558518-18.110747 12.63755-15.063992 16.586701-23.866025c3.949151-8.800697 5.923726-18.054598 5.923726-27.757691 0-10.380892-2.53874-20.593337-7.616219-30.635998s-12.185684-19.013142-21.325949-26.912781c-9.140265-7.899638-20.141471-14.217745-33.006291-18.956993s-27.081228-7.108204-42.653235-7.108204H339.516192z m71.765187 158.427256v-128.636167c0-9.02663 0.846247-14.781909 2.53874-17.2645s7.842152-3.724555 18.448977-3.724555h62.624922c11.961087 0 22.399466 2.200509 31.312461 6.601526s16.360768 10.042661 22.34198 16.926269 10.494527 14.612125 13.541282 23.188226 4.569464 16.926269 4.569465 25.050503c0 9.70443-1.862277 19.239075-5.585495 28.605274s-9.140265 17.65888-16.249807 24.882057-15.854089 13.089416-26.234981 17.602731C508.204021 326.61509 496.356568 328.873085 483.041219 328.873085H411.276032z m20.989054 170.274708c-10.606825 0-16.756485-1.240627-18.448978-3.724555s-2.53874-8.236533-2.538739-17.2645V337.671108h92.754241c12.638887 0 23.640092 2.53874 33.004955 7.616219s17.094716 11.621519 23.188226 19.634793c6.09351 8.011937 10.662974 16.982418 13.709729 26.911444s4.569464 19.747091 4.569465 29.450184c0 9.02663-1.692493 18.279194-5.07748 27.759027s-8.519952 18.166896-15.40356 26.066534c-6.883608 7.899638-15.572007 14.387529-26.066534 19.465009s-22.849995 7.616219-37.06774 7.616219H432.266423v-3.046755z m280.631681-209.203388c0-10.380892 2.030724-16.982418 6.093511-19.80324s15.007842-4.231233 32.836507-4.231233v-11.84879c-9.02663 1.578858-19.239075 2.482591-30.635999 2.707187s-20.142808 0.338231-26.234981 0.338232c-5.867577 0-14.555976-0.112298-26.066534-0.338232s-21.665517-1.128329-30.467551-2.707187v11.84879c17.828664 0 28.265706 1.410411 31.31246 4.231233s4.569464 9.422348 4.569465 19.80324v185.168915c0 10.606825-1.862277 17.2645-5.585495 19.973024s-13.822028 4.061449-30.29643 4.061449v11.848789h113.403728v-11.848789c-17.828664 0-28.775058-1.354262-32.836507-4.061449s-6.09351-9.364862-6.09351-19.973024V289.941731z m68.719769-35.884599v11.848789c16.474403 0 26.573213 1.410411 30.297768 4.231233s5.585495 9.422348 5.585494 19.80324v185.168915c0 10.606825-1.86094 17.2645-5.585494 19.973024s-13.822028 4.061449-30.297768 4.061449v11.848789h152.671977c14.217745 0 26.856632-1.86094 37.913987-5.585495s20.423553-8.802034 28.097258-15.232439c7.673705-6.431742 13.539946-13.767216 17.602731-22.003748s6.09351-16.868783 6.093511-25.89675c0-8.124235-1.974575-15.854089-5.923726-23.188226s-9.252563-13.879514-15.910239-19.634793c-6.657675-5.755279-14.555976-10.606825-23.696241-14.555976s-18.900844-6.713824-29.281737-8.294019c17.828664-2.934457 32.724209-9.872877 44.685297-20.817933s17.942299-23.978324 17.942299-39.098465c0-8.124235-2.143023-15.967724-6.431741-23.527794s-10.324743-14.217745-18.110747-19.973024c-7.786003-5.753942-17.208351-10.380892-28.267043-13.879514s-23.35801-5.247264-36.899293-5.247263H781.620547z m66.009909 119.498575v-83.613976c0-10.380892 1.240627-16.474403 3.724554-18.279194s8.124235-2.707187 16.926269-2.707187h48.070282c22.34198 0 36.899293 6.995906 43.667929 20.989054s10.154959 23.922175 10.154959 29.789752c0 9.02663-4.231233 20.253769-12.693699 33.682754s-26.234981 20.142808-53.317546 20.142808h-56.532748z m0 9.138928h74.473711c20.989055 0 35.713478 7.334137 44.177281 22.003749s12.693699 27.193526 12.693698 37.575755c0 11.961087-4.852883 24.43019-14.555976 37.405971s-25.728303 19.465009-48.070282 19.465009H868.277268c-8.802034 0-14.443678-1.240627-16.926269-3.724555s-3.724555-8.236533-3.724554-17.2645v-95.461429z" p-id="2286"></path></svg>