<?xml version="1.0" standalone="no"?><!DOCTYPE svg PUBLIC "-//W3C//DTD SVG 1.1//EN" "http://www.w3.org/Graphics/SVG/1.1/DTD/svg11.dtd"><svg t="1606702704293" class="icon" viewBox="0 0 1024 1024" version="1.1" xmlns="http://www.w3.org/2000/svg" p-id="3132" xmlns:xlink="http://www.w3.org/1999/xlink" width="200" height="200"><defs><style type="text/css"></style></defs><path d="M512 580.26666667a34.13333333 34.13333333 0 0 1-18.3296-5.3248L102.4 325.9392v459.3664A68.26666667 68.26666667 0 0 0 170.73493333 853.33333333h682.53013334A68.26666667 68.26666667 0 0 0 921.6 785.3056V326.28053333l-391.2704 248.66133334A34.23573333 34.23573333 0 0 1 512 580.26666667" p-id="3133"></path><path d="M853.26506667 170.66666667H170.73493333A68.26666667 68.26666667 0 0 0 102.4 238.72853333v5.2224l409.6 261.7344 409.6-260.3008v-6.656A68.26666667 68.26666667 0 0 0 853.26506667 170.66666667" p-id="3134"></path></svg>