<?xml version="1.0" standalone="no"?><!DOCTYPE svg PUBLIC "-//W3C//DTD SVG 1.1//EN" "http://www.w3.org/Graphics/SVG/1.1/DTD/svg11.dtd"><svg t="1609828188439" class="icon" viewBox="0 0 1024 1024" version="1.1" xmlns="http://www.w3.org/2000/svg" p-id="2585" xmlns:xlink="http://www.w3.org/1999/xlink" width="200" height="200"><defs><style type="text/css"></style></defs><path d="M898.56 368.64h-23.04V253.44v-2.56c0-5.12-2.56-10.24-5.12-12.8L675.84 17.92c0-2.56-2.56-2.56-5.12-2.56h-2.56s-2.56 0-5.12-2.56H186.88c-20.48 0-38.4 17.92-38.4 38.4v320h-23.04c-30.72 0-56.32 25.6-56.32 56.32V716.8c0 30.72 25.6 56.32 56.32 56.32h23.04V972.8c0 20.48 17.92 38.4 38.4 38.4h647.68c20.48 0 38.4-17.92 38.4-38.4v-199.68h23.04c30.72 0 56.32-25.6 56.32-56.32V424.96c2.56-30.72-20.48-56.32-53.76-56.32zM168.96 481.28v-51.2h204.8v51.2h-71.68v215.04H240.64v-215.04H168.96z m668.16 483.84H186.88v-189.44h647.68v189.44zM565.76 537.6v48.64h-97.28v64h110.08v48.64H409.6V432.64h163.84v48.64h-104.96V537.6h97.28z m35.84-104.96h69.12l23.04 48.64c7.68 15.36 12.8 28.16 20.48 43.52 5.12-17.92 10.24-28.16 17.92-43.52l23.04-48.64h69.12L750.08 563.2l79.36 135.68h-69.12l-23.04-48.64c-10.24-17.92-15.36-33.28-23.04-48.64-5.12 15.36-12.8 28.16-20.48 48.64L665.6 698.88h-69.12l76.8-135.68-71.68-130.56z m235.52-64H186.88V48.64h455.68v202.24c0 10.24 7.68 20.48 20.48 20.48h174.08v97.28z" fill="#333333" p-id="2586"></path></svg>