<?xml version="1.0" standalone="no"?><!DOCTYPE svg PUBLIC "-//W3C//DTD SVG 1.1//EN" "http://www.w3.org/Graphics/SVG/1.1/DTD/svg11.dtd"><svg t="1603346853005" class="icon" viewBox="0 0 1024 1024" version="1.1" xmlns="http://www.w3.org/2000/svg" p-id="1213" xmlns:xlink="http://www.w3.org/1999/xlink" width="200" height="200"><defs><style type="text/css"></style></defs><path d="M163.045 58.955h696.844c52.656 3.361 97.637 48.961 99.822 101.732v693.865c-3.304 51.706-47.053 95.737-98.588 99.828h-697.07c-51.703-3.36-95.565-47.058-99.766-98.595V158.951c3.419-51.82 47.112-95.907 98.758-99.996zM833.233 580.9c-13.267-12.761-42.702-19.791-87.617-20.394-35.266 0-70.43 2.512-105.3 7.635a267.648 267.648 0 0 1-48.732-33.26 350.401 350.401 0 0 1-88.015-134.736c1.304-4.925 2.208-9.243 3.415-13.668 0 0 21.102-118.158 15.473-157.246a45.126 45.126 0 0 0-2.714-11.451l-1.81-4.726c-4.921-15.071-18.688-25.52-34.564-26.022H472.82a38.977 38.977 0 0 0-39.99 24.718c-13.065 45.616 0.202 115.245 24.213 205.07l-6.026 14.571c-17.082 41.094-38.586 82.392-57.474 119.067l-2.512 4.72c-17.182 33.362-35.369 66.217-54.362 98.568l-16.875 8.743c-1.305 0-30.144 15.675-37.077 19.797-57.774 33.758-95.957 72.443-102.183 102.99a25.168 25.168 0 0 0 9.647 28.032l16.376 8.036c7.03 3.415 14.668 5.226 22.504 5.123 41.099 0 89.825-50.537 154.537-163.276a1545.272 1545.272 0 0 1 237.827-55.664c53.05 30.647 112.33 49.134 173.42 54.158 6.835 0.103 13.768-0.603 20.4-2.208 8.141-1.907 15.373-6.834 20.195-13.666a71.17 71.17 0 0 0 7.639-49.434 33.413 33.413 0 0 0-9.847-16.578v1.1zM219.82 796.223a281.337 281.337 0 0 1 81.09-95.454c2.713-2.211 9.443-8.54 15.67-14.37-46.015 72.145-76.562 100.88-96.76 109.824z m259.637-589.094c13.261 0 20.694 32.754 22.504 63.603a129.095 129.095 0 0 1-15.676 67.42c-7.433-27.834-11.052-56.574-11.052-85.308 0-0.099-1.806-45.715 4.224-45.715z m-77.473 419.992c9.25-16.177 18.692-33.26 28.538-51.447 18.888-34.862 35.569-70.939 50.037-107.811a356.808 356.808 0 0 0 82.693 101.08l13.06 10.15c-59.378 10.951-117.658 27.029-174.33 47.826v0.202z m418.386-3.617c-7.132 2.81-14.767 4.117-22.504 4.018a274.642 274.642 0 0 1-95.454-28.535 838.003 838.003 0 0 1 44.91-1.81c18.491-1.006 36.978 0.903 54.763 5.828 22.505 5.829 23.815 17.987 19.791 20.396h-1.508v0.103z m0 0" p-id="1214"></path></svg>