<?xml version="1.0" standalone="no"?><!DOCTYPE svg PUBLIC "-//W3C//DTD SVG 1.1//EN" "http://www.w3.org/Graphics/SVG/1.1/DTD/svg11.dtd"><svg t="1603346911422" class="icon" viewBox="0 0 1027 1024" version="1.1" xmlns="http://www.w3.org/2000/svg" p-id="4008" xmlns:xlink="http://www.w3.org/1999/xlink" width="200.5859375" height="200"><defs><style type="text/css"></style></defs><path d="M272.700182 408.50482c19.715215 0 36.509311 6.93582 50.379614 20.806123C336.950099 443.186593 343.88993 459.975341 343.88993 479.690556c0 18.982596-6.939831 35.594874-20.810134 49.830149-13.870303 14.240623-30.664399 21.359598-50.379614 21.359598-19.713878 0-36.502627-7.117638-50.378277-21.359598-13.870303-14.235276-20.806123-30.847554-20.806123-49.830149 0-19.715215 6.93582-36.503964 20.806123-50.379614C236.197556 415.44064 252.986304 408.50482 272.700182 408.50482L272.700182 408.50482zM824.676742 0c32.121616 0 60.598852 5.66042 85.421013 16.977251 24.826171 11.31683 45.815449 25.918416 62.974518 43.804756 17.155058 17.891688 30.299426 38.148346 39.427757 60.782007 9.122983 22.637671 13.687148 44.906359 13.687148 66.8074l0 559.636977c0 16.795433-3.832883 33.224556-11.499985 49.287369-7.665765 16.058803-17.886341 30.665736-30.665736 43.804756-12.779395 13.144368-27.379644 23.729916-43.810104 31.761991-16.423776 8.032075-33.401026 12.048113-50.922394 12.048113L889.288958 272.700182c0-18.982596-3.649728-36.685781-10.950521-53.114905-7.30614-16.429123-17.160406-30.847554-29.573491-43.260639-12.407738-12.414422-26.831516-22.268688-43.255292-29.56948-16.429123-7.300793-34.137656-10.950521-53.120252-10.950521l-615.495194 0c0-16.06415 3.651065-32.126964 10.957205-48.191114 7.300793-16.062813 17.155058-30.664399 29.568144-43.803419 12.413086-13.145705 27.014671-23.729916 43.804756-31.761991 16.794096-8.032075 34.680436-12.048113 53.66838-12.048113L824.676742 0 824.676742 0zM729.392105 204.800537c32.858246 0 56.223189 8.941165 70.093492 26.832853 13.870303 17.886341 20.810134 41.798074 20.810134 71.732528l0 645.063337c0 18.256661-7.665765 35.411719-22.998633 51.475869s-34.680436 24.094889-58.04538 24.094889l-663.686308 0c-19.713878 0-37.233909-8.032075-52.566777-24.094889C7.665765 983.840974 0 964.492069 0 941.859745l0-657.11145c0-23.363606 6.386355-42.529357 19.165751-57.497252 12.779395-14.966558 29.751298-22.450506 50.927742-22.450506L729.392105 204.800537 729.392105 204.800537zM684.491094 371.265563c0-8.026728-2.553473-14.601585-7.665765-19.708531-5.112293-5.112293-11.681803-7.667102-19.713878-7.667102l-493.927169 0c-8.030738 0-14.605596 2.55481-19.713878 7.667102-5.112293 5.106945-7.665765 11.681803-7.665765 19.708531l0 244.229631c6.56951 8.032075 12.590893 16.977251 18.069495 26.831516 5.477266 9.854265 12.229931 19.165751 20.262006 27.929108 8.032075 8.75801 18.617623 16.240621 31.756643 22.450506 13.144368 6.204537 31.395681 9.306138 54.760624 9.306138 34.315464 0 62.243235-5.473255 83.78064-16.423776 21.541416-10.950521 40.524012-24.826171 56.953135-41.616256 16.423776-16.795433 31.756643-34.863591 45.998604-54.212497C461.621061 570.411027 478.598312 552.154367 498.306843 534.999309 518.020721 517.838903 542.481919 503.237317 571.68509 491.189205c29.208518-12.048113 66.808737-18.799441 112.806004-20.256658L684.491094 371.265563 684.491094 371.265563zM684.491094 371.265563" p-id="4009"></path></svg>